<mxfile host="Electron" agent="Mozilla/5.0 (Windows NT 10.0; Win64; x64) AppleWebKit/537.36 (KHTML, like Gecko) draw.io/28.1.2 Chrome/138.0.7204.243 Electron/37.4.0 Safari/537.36" version="28.1.2">
  <diagram name="Page-1" id="nRs_NmrEsKOntTZ6l3ib">
    <mxGraphModel dx="1042" dy="626" grid="1" gridSize="10" guides="1" tooltips="1" connect="1" arrows="1" fold="1" page="1" pageScale="1" pageWidth="850" pageHeight="1100" math="0" shadow="0">
      <root>
        <mxCell id="0" />
        <mxCell id="1" parent="0" />
        <mxCell id="Cl7j3aoNFroisdFZ-bEz-36" value="" style="whiteSpace=wrap;html=1;aspect=fixed;fillColor=none;dashed=1;dashPattern=1 2;rounded=1;" parent="1" vertex="1">
          <mxGeometry x="501" y="110" width="440" height="440" as="geometry" />
        </mxCell>
        <mxCell id="Cl7j3aoNFroisdFZ-bEz-35" value="" style="whiteSpace=wrap;html=1;aspect=fixed;fillColor=none;rounded=1;dashed=1;dashPattern=1 2;" parent="1" vertex="1">
          <mxGeometry x="42" y="110" width="440" height="440" as="geometry" />
        </mxCell>
        <mxCell id="Cl7j3aoNFroisdFZ-bEz-1" value="&lt;b&gt;crm_sales_details&lt;/b&gt;" style="swimlane;fontStyle=0;childLayout=stackLayout;horizontal=1;startSize=30;horizontalStack=0;resizeParent=1;resizeParentMax=0;resizeLast=0;collapsible=1;marginBottom=0;whiteSpace=wrap;html=1;fillColor=#CCE5FF;rounded=1;fontSize=16;" parent="1" vertex="1">
          <mxGeometry x="78" y="271" width="140" height="100" as="geometry" />
        </mxCell>
        <mxCell id="Cl7j3aoNFroisdFZ-bEz-2" value="prd_key&lt;div&gt;cst_id&lt;/div&gt;" style="text;strokeColor=none;fillColor=none;align=left;verticalAlign=middle;spacingLeft=4;spacingRight=4;overflow=hidden;points=[[0,0.5],[1,0.5]];portConstraint=eastwest;rotatable=0;whiteSpace=wrap;html=1;rounded=1;fontSize=16;" parent="Cl7j3aoNFroisdFZ-bEz-1" vertex="1">
          <mxGeometry y="30" width="140" height="70" as="geometry" />
        </mxCell>
        <mxCell id="Cl7j3aoNFroisdFZ-bEz-5" value="&lt;b&gt;crm_prd_info&lt;/b&gt;" style="swimlane;fontStyle=0;childLayout=stackLayout;horizontal=1;startSize=30;horizontalStack=0;resizeParent=1;resizeParentMax=0;resizeLast=0;collapsible=1;marginBottom=0;whiteSpace=wrap;html=1;fillColor=#CCE5FF;rounded=1;fontSize=16;" parent="1" vertex="1">
          <mxGeometry x="297" y="200" width="170" height="80" as="geometry" />
        </mxCell>
        <mxCell id="Cl7j3aoNFroisdFZ-bEz-6" value="prd_key" style="text;strokeColor=none;fillColor=none;align=left;verticalAlign=middle;spacingLeft=4;spacingRight=4;overflow=hidden;points=[[0,0.5],[1,0.5]];portConstraint=eastwest;rotatable=0;whiteSpace=wrap;html=1;rounded=1;fontSize=16;" parent="Cl7j3aoNFroisdFZ-bEz-5" vertex="1">
          <mxGeometry y="30" width="170" height="50" as="geometry" />
        </mxCell>
        <mxCell id="Cl7j3aoNFroisdFZ-bEz-7" value="&lt;b&gt;crm_cust_info&lt;/b&gt;" style="swimlane;fontStyle=0;childLayout=stackLayout;horizontal=1;startSize=30;horizontalStack=0;resizeParent=1;resizeParentMax=0;resizeLast=0;collapsible=1;marginBottom=0;whiteSpace=wrap;html=1;fillColor=#CCE5FF;rounded=1;fontSize=16;" parent="1" vertex="1">
          <mxGeometry x="297" y="348" width="170" height="100" as="geometry" />
        </mxCell>
        <mxCell id="Cl7j3aoNFroisdFZ-bEz-8" value="&lt;div&gt;cst_id&lt;/div&gt;&lt;div&gt;cst_key&lt;/div&gt;" style="text;strokeColor=none;fillColor=none;align=left;verticalAlign=middle;spacingLeft=4;spacingRight=4;overflow=hidden;points=[[0,0.5],[1,0.5]];portConstraint=eastwest;rotatable=0;whiteSpace=wrap;html=1;rounded=1;fontSize=16;" parent="Cl7j3aoNFroisdFZ-bEz-7" vertex="1">
          <mxGeometry y="30" width="170" height="70" as="geometry" />
        </mxCell>
        <mxCell id="Cl7j3aoNFroisdFZ-bEz-14" style="edgeStyle=orthogonalEdgeStyle;rounded=0;orthogonalLoop=1;jettySize=auto;html=1;" parent="1" source="Cl7j3aoNFroisdFZ-bEz-2" target="Cl7j3aoNFroisdFZ-bEz-6" edge="1">
          <mxGeometry relative="1" as="geometry" />
        </mxCell>
        <mxCell id="Cl7j3aoNFroisdFZ-bEz-15" style="edgeStyle=orthogonalEdgeStyle;rounded=0;orthogonalLoop=1;jettySize=auto;html=1;entryX=0;entryY=0.5;entryDx=0;entryDy=0;" parent="1" source="Cl7j3aoNFroisdFZ-bEz-2" target="Cl7j3aoNFroisdFZ-bEz-8" edge="1">
          <mxGeometry relative="1" as="geometry" />
        </mxCell>
        <mxCell id="Cl7j3aoNFroisdFZ-bEz-16" value="&lt;font style=&quot;font-size: 16px;&quot;&gt;Product Information&amp;nbsp;&lt;/font&gt;" style="text;html=1;align=center;verticalAlign=middle;whiteSpace=wrap;rounded=0;" parent="1" vertex="1">
          <mxGeometry x="297" y="174" width="170" height="30" as="geometry" />
        </mxCell>
        <mxCell id="Cl7j3aoNFroisdFZ-bEz-18" value="&lt;font style=&quot;font-size: 16px;&quot;&gt;Transaction Records&amp;nbsp;&lt;/font&gt;" style="text;html=1;align=center;verticalAlign=middle;whiteSpace=wrap;rounded=0;" parent="1" vertex="1">
          <mxGeometry x="68" y="244" width="170" height="30" as="geometry" />
        </mxCell>
        <mxCell id="Cl7j3aoNFroisdFZ-bEz-20" value="&lt;font style=&quot;font-size: 16px;&quot;&gt;Customer Information&amp;nbsp;&lt;/font&gt;" style="text;html=1;align=center;verticalAlign=middle;whiteSpace=wrap;rounded=0;" parent="1" vertex="1">
          <mxGeometry x="297" y="322" width="170" height="30" as="geometry" />
        </mxCell>
        <mxCell id="Cl7j3aoNFroisdFZ-bEz-21" value="&lt;b&gt;erp_px_cat_g1v2&lt;/b&gt;" style="swimlane;fontStyle=0;childLayout=stackLayout;horizontal=1;startSize=30;horizontalStack=0;resizeParent=1;resizeParentMax=0;resizeLast=0;collapsible=1;marginBottom=0;whiteSpace=wrap;html=1;fillColor=#fff2cc;rounded=1;fontSize=16;strokeColor=#d6b656;" parent="1" vertex="1">
          <mxGeometry x="597" y="158.5" width="170" height="80" as="geometry" />
        </mxCell>
        <mxCell id="Cl7j3aoNFroisdFZ-bEz-22" value="id" style="text;strokeColor=none;fillColor=none;align=left;verticalAlign=middle;spacingLeft=4;spacingRight=4;overflow=hidden;points=[[0,0.5],[1,0.5]];portConstraint=eastwest;rotatable=0;whiteSpace=wrap;html=1;rounded=1;fontSize=16;" parent="Cl7j3aoNFroisdFZ-bEz-21" vertex="1">
          <mxGeometry y="30" width="170" height="50" as="geometry" />
        </mxCell>
        <mxCell id="Cl7j3aoNFroisdFZ-bEz-23" value="&lt;font style=&quot;font-size: 16px;&quot;&gt;Product Categories&lt;/font&gt;" style="text;html=1;align=center;verticalAlign=middle;whiteSpace=wrap;rounded=0;" parent="1" vertex="1">
          <mxGeometry x="597" y="132.5" width="170" height="30" as="geometry" />
        </mxCell>
        <mxCell id="Cl7j3aoNFroisdFZ-bEz-24" style="edgeStyle=orthogonalEdgeStyle;rounded=0;orthogonalLoop=1;jettySize=auto;html=1;" parent="1" source="Cl7j3aoNFroisdFZ-bEz-22" target="Cl7j3aoNFroisdFZ-bEz-6" edge="1">
          <mxGeometry relative="1" as="geometry" />
        </mxCell>
        <mxCell id="Cl7j3aoNFroisdFZ-bEz-25" value="&lt;b&gt;erp_cust_az12&lt;/b&gt;" style="swimlane;fontStyle=0;childLayout=stackLayout;horizontal=1;startSize=30;horizontalStack=0;resizeParent=1;resizeParentMax=0;resizeLast=0;collapsible=1;marginBottom=0;whiteSpace=wrap;html=1;fillColor=#fff2cc;rounded=1;fontSize=16;strokeColor=#d6b656;" parent="1" vertex="1">
          <mxGeometry x="597" y="304" width="170" height="80" as="geometry" />
        </mxCell>
        <mxCell id="Cl7j3aoNFroisdFZ-bEz-26" value="cid" style="text;strokeColor=none;fillColor=none;align=left;verticalAlign=middle;spacingLeft=4;spacingRight=4;overflow=hidden;points=[[0,0.5],[1,0.5]];portConstraint=eastwest;rotatable=0;whiteSpace=wrap;html=1;rounded=1;fontSize=16;" parent="Cl7j3aoNFroisdFZ-bEz-25" vertex="1">
          <mxGeometry y="30" width="170" height="50" as="geometry" />
        </mxCell>
        <mxCell id="Cl7j3aoNFroisdFZ-bEz-27" value="&lt;font style=&quot;font-size: 16px;&quot;&gt;Customer Details&lt;/font&gt;" style="text;html=1;align=center;verticalAlign=middle;whiteSpace=wrap;rounded=0;" parent="1" vertex="1">
          <mxGeometry x="597" y="278" width="170" height="30" as="geometry" />
        </mxCell>
        <mxCell id="Cl7j3aoNFroisdFZ-bEz-28" value="&lt;b&gt;erp_loc_a101&lt;/b&gt;" style="swimlane;fontStyle=0;childLayout=stackLayout;horizontal=1;startSize=30;horizontalStack=0;resizeParent=1;resizeParentMax=0;resizeLast=0;collapsible=1;marginBottom=0;whiteSpace=wrap;html=1;fillColor=#fff2cc;rounded=1;fontSize=16;strokeColor=#d6b656;" parent="1" vertex="1">
          <mxGeometry x="597" y="423.5" width="170" height="80" as="geometry" />
        </mxCell>
        <mxCell id="Cl7j3aoNFroisdFZ-bEz-29" value="cid" style="text;strokeColor=none;fillColor=none;align=left;verticalAlign=middle;spacingLeft=4;spacingRight=4;overflow=hidden;points=[[0,0.5],[1,0.5]];portConstraint=eastwest;rotatable=0;whiteSpace=wrap;html=1;rounded=1;fontSize=16;" parent="Cl7j3aoNFroisdFZ-bEz-28" vertex="1">
          <mxGeometry y="30" width="170" height="50" as="geometry" />
        </mxCell>
        <mxCell id="Cl7j3aoNFroisdFZ-bEz-30" value="&lt;font style=&quot;font-size: 16px;&quot;&gt;Cutomer Location&lt;/font&gt;" style="text;html=1;align=center;verticalAlign=middle;whiteSpace=wrap;rounded=0;" parent="1" vertex="1">
          <mxGeometry x="597" y="397.5" width="170" height="30" as="geometry" />
        </mxCell>
        <mxCell id="Cl7j3aoNFroisdFZ-bEz-31" style="edgeStyle=orthogonalEdgeStyle;rounded=0;orthogonalLoop=1;jettySize=auto;html=1;entryX=1.014;entryY=0.14;entryDx=0;entryDy=0;entryPerimeter=0;" parent="1" source="Cl7j3aoNFroisdFZ-bEz-26" target="Cl7j3aoNFroisdFZ-bEz-8" edge="1">
          <mxGeometry relative="1" as="geometry" />
        </mxCell>
        <mxCell id="Cl7j3aoNFroisdFZ-bEz-32" style="edgeStyle=orthogonalEdgeStyle;rounded=0;orthogonalLoop=1;jettySize=auto;html=1;entryX=1;entryY=0.5;entryDx=0;entryDy=0;" parent="1" source="Cl7j3aoNFroisdFZ-bEz-29" target="Cl7j3aoNFroisdFZ-bEz-8" edge="1">
          <mxGeometry relative="1" as="geometry" />
        </mxCell>
        <mxCell id="Cl7j3aoNFroisdFZ-bEz-40" value="&lt;font style=&quot;font-size: 24px;&quot;&gt;CRM&lt;/font&gt;" style="rounded=1;whiteSpace=wrap;html=1;fillColor=#dae8fc;strokeColor=#6c8ebf;" parent="1" vertex="1">
          <mxGeometry x="227" y="90" width="95" height="40" as="geometry" />
        </mxCell>
        <mxCell id="Cl7j3aoNFroisdFZ-bEz-41" value="&lt;font style=&quot;font-size: 24px;&quot;&gt;ERP&lt;/font&gt;" style="rounded=1;whiteSpace=wrap;html=1;fillColor=#fff2cc;strokeColor=#d6b656;" parent="1" vertex="1">
          <mxGeometry x="672" y="90" width="95" height="40" as="geometry" />
        </mxCell>
        <mxCell id="Cl7j3aoNFroisdFZ-bEz-42" value="&lt;font style=&quot;font-size: 20px;&quot;&gt;Data Integration Model: how ables are related&lt;/font&gt;" style="text;html=1;align=center;verticalAlign=middle;whiteSpace=wrap;rounded=0;" parent="1" vertex="1">
          <mxGeometry x="238" y="20" width="490" height="30" as="geometry" />
        </mxCell>
        <mxCell id="Hz9kSLorIqKdzwCXQ2Gk-2" value="&lt;font style=&quot;font-size: 16px;&quot;&gt;&lt;b&gt;Sales&lt;/b&gt;&lt;/font&gt;" style="rounded=0;whiteSpace=wrap;html=1;fillColor=#bac8d3;strokeColor=#23445d;" vertex="1" parent="1">
          <mxGeometry x="79" y="360" width="139" height="29" as="geometry" />
        </mxCell>
        <mxCell id="Hz9kSLorIqKdzwCXQ2Gk-3" value="&lt;font style=&quot;font-size: 16px;&quot;&gt;&lt;b&gt;Product&lt;/b&gt;&lt;/font&gt;" style="rounded=0;whiteSpace=wrap;html=1;gradientColor=none;fillColor=#E6D0DE;" vertex="1" parent="1">
          <mxGeometry x="297" y="271" width="170" height="29" as="geometry" />
        </mxCell>
        <mxCell id="Hz9kSLorIqKdzwCXQ2Gk-4" value="&lt;font style=&quot;font-size: 16px;&quot;&gt;&lt;b&gt;Customer&lt;/b&gt;&lt;/font&gt;" style="rounded=0;whiteSpace=wrap;html=1;fillColor=#D5E8D4;" vertex="1" parent="1">
          <mxGeometry x="297" y="436" width="170" height="29" as="geometry" />
        </mxCell>
        <mxCell id="Hz9kSLorIqKdzwCXQ2Gk-5" value="&lt;font style=&quot;font-size: 16px;&quot;&gt;&lt;b&gt;Product&lt;/b&gt;&lt;/font&gt;" style="rounded=0;whiteSpace=wrap;html=1;gradientColor=none;fillColor=#E6D0DE;" vertex="1" parent="1">
          <mxGeometry x="597" y="229" width="170" height="29" as="geometry" />
        </mxCell>
        <mxCell id="Hz9kSLorIqKdzwCXQ2Gk-7" value="&lt;font style=&quot;font-size: 16px;&quot;&gt;&lt;b&gt;Customer&lt;/b&gt;&lt;/font&gt;" style="rounded=0;whiteSpace=wrap;html=1;fillColor=#D5E8D4;" vertex="1" parent="1">
          <mxGeometry x="597" y="490" width="170" height="29" as="geometry" />
        </mxCell>
      </root>
    </mxGraphModel>
  </diagram>
</mxfile>
